<?xml version="1.0" encoding="UTF-8" standalone="no"?>
<!DOCTYPE svg PUBLIC "-//W3C//DTD SVG 1.1//EN" "http://www.w3.org/Graphics/SVG/1.1/DTD/svg11.dtd">
<svg t="1637839540099" class="icon" viewBox="0 0 1024 1024" version="1.1" xmlns="http://www.w3.org/2000/svg" p-id="2666" width="200" height="200"><path d="M512 469.333333a42.666667 42.666667 0 1 1-42.666667 42.666667 42.666667 42.666667 0 0 1 42.666667-42.666667m0-85.333333a128 128 0 1 0 128 128 128 128 0 0 0-128-128z m0-209.493333a591.573333 591.573333 0 0 1 192 438.613333v90.24h88.746667l28.373333 85.333333H618.666667v85.333334H405.333333V789.333333H203.733333l28.373334-85.333333H320v-85.333333-4.693334a591.573333 591.573333 0 0 1 192-439.466666M512 64a682.666667 682.666667 0 0 0-277.333333 549.333333V618.666667H170.666667L85.333333 874.666667h234.666667v85.333333h384v-85.333333h234.666667l-85.333334-256h-64v-5.333334A682.666667 682.666667 0 0 0 512 64z" p-id="2667" data-spm-anchor-id="a313x.7781069.0.i3" class="" fill="#ffffff"></path></svg>